<svg width="662" height="87" viewBox="0 0 662 87" fill="none" xmlns="http://www.w3.org/2000/svg">
<path d="M0 43.4549C0 16.7689 14.2446 0 36.3326 0C55.7161 0 66.1741 12.171 69.1492 27.2269L65.8135 28.0383C63.3793 13.9741 53.4622 3.15544 36.3326 3.15544C16.4083 3.15544 3.51606 18.6622 3.51606 43.4549C3.51606 68.2477 16.4083 83.8446 36.6031 83.8446C54.1834 83.8446 63.8301 73.0259 66.1741 56.5275L69.5098 57.3389C66.5347 74.829 56.1668 87 36.6933 87C14.2446 87 0 70.1409 0 43.4549Z" fill="black"/>
<path d="M89.9751 43.4549C89.9751 16.5886 104.22 0 126.849 0C149.478 0 163.632 16.5886 163.632 43.4549C163.632 70.4114 149.388 87 126.849 87C104.22 87 89.9751 70.4114 89.9751 43.4549ZM126.849 83.8446C147.314 83.8446 160.206 68.428 160.206 43.3648C160.206 18.4819 147.314 3.06528 126.849 3.06528C106.383 3.06528 93.4912 18.4819 93.4912 43.3648C93.4912 68.5181 106.383 83.8446 126.849 83.8446Z" fill="black"/>
<path d="M190.589 43.5451L190.408 1.8031H194.285L222.954 43.1844L248.829 79.7876H249.1V43.5451L248.739 1.8031H252.345L252.075 43.4549L252.345 85.1969H248.468L220.43 44.9876L194.015 7.30258H193.744V43.3648L194.015 85.1067H190.408L190.589 43.5451Z" fill="black"/>
<path d="M293.726 43.4549L276.687 1.8031H280.654L296.882 43.4549L311.938 81.1399H312.208L327.264 43.4549L343.492 1.8031H347.459L330.329 43.4549L313.921 85.1969H310.135L293.726 43.4549Z" fill="black"/>
<path d="M371.981 43.4549L371.711 1.8031H375.317L375.047 43.4549L375.317 85.1969H371.711L371.981 43.4549Z" fill="black"/>
<path d="M416.789 43.4549L399.659 1.8031H403.626L419.854 43.4549L434.91 81.1399H435.18L450.236 43.4549L466.464 1.8031H470.431L453.302 43.4549L436.893 85.1969H433.017L416.789 43.4549Z" fill="black"/>
<path d="M494.953 43.4549L494.773 1.8031H498.379L498.109 43.4549L498.379 85.1969H494.773L494.953 43.4549Z" fill="black"/>
<path d="M530.114 82.0414V85.1969H586.822V82.0414H530.114Z" fill="#E6007E"/>
<path d="M585.56 1.8031H530.114V4.95854H585.56V1.8031Z" fill="#E6007E"/>
<path d="M582.945 40.4798H530.294L530.384 43.4549V43.5451H582.945V40.4798Z" fill="#E6007E"/>
<path d="M611.975 43.5451L611.705 1.8031H615.221L614.95 43.5451L615.221 82.0414H661.921V85.1969H611.705L611.975 43.5451Z" fill="black"/>
</svg>
