<?xml version="1.0" encoding="UTF-8"?>
<svg overflow="visible" baseProfile="tiny" version="1.2" viewBox="0 0 734.5 97.7" xml:space="preserve" xmlns="http://www.w3.org/2000/svg">

	<path d="M0,48.2C0,18.6,15.8,0,40.3,0c21.5,0,33.1,13.5,36.4,30.2L73,31.1C70.3,15.5,59.3,3.5,40.3,3.5C18.2,3.5,3.9,20.7,3.9,48.2   C3.9,75.7,18.2,93,40.6,93c19.5,0,30.2-12,32.8-30.3l3.7,0.9C73.8,83,62.3,96.5,40.7,96.5C15.8,96.5,0,77.8,0,48.2z"/>
	<path d="m99.8 48.2c0-29.8 15.8-48.2 40.9-48.2s40.8 18.4 40.8 48.2c0 29.9-15.8 48.3-40.8 48.3-25.1 0-40.9-18.4-40.9-48.3zm40.9 44.8c22.7 0 37-17.1 37-44.9 0-27.6-14.3-44.7-37-44.7s-37 17.1-37 44.7c0 27.9 14.3 44.9 37 44.9z"/>
	<path d="m211.4 48.3-0.2-46.3h4.3l31.8 45.9 28.7 40.6h0.3v-40.2l-0.4-46.3h4l-0.3 46.2 0.3 46.3h-4.3l-31.1-44.6-29.3-41.8h-0.3v40l0.3 46.3h-4l0.2-46.1z"/>
	<path d="M325.8,48.2L306.9,2h4.4l18,46.2L346,90h0.3l16.7-41.8L381,2h4.4l-19,46.2l-18.2,46.3H344L325.8,48.2z"/>
	<path d="m412.6 48.2-0.3-46.2h4l-0.3 46.2 0.3 46.3h-4l0.3-46.3z"/>
	<path d="m462.3 48.2-19-46.2h4.4l18 46.2 16.7 41.8h0.3l16.7-41.8 18-46.2h4.4l-19 46.2-18.2 46.3h-4.3l-18-46.3z"/>
	<path d="M549,48.2L548.8,2h4l-0.3,46.2l0.3,46.3h-4L549,48.2z"/>
	
		<polygon points="588 91 588 94.5 650.9 94.5 650.9 91"/>
		<polygon points="649.5 2 588 2 588 5.5 649.5 5.5"/>
		<polygon points="646.6 44.9 588.2 44.9 588.3 48.2 588.3 48.3 646.6 48.3"/>
	
	<path d="m678.8 48.3-0.3-46.3h3.9l-0.3 46.3 0.3 42.7h51.8v3.5h-55.7l0.3-46.2z"/>

</svg>
